<?xml version="1.0" encoding="UTF-8" standalone="no"?>
<!-- Created with Inkscape (http://www.inkscape.org/) -->
<svg
   xmlns:svg="http://www.w3.org/2000/svg"
   xmlns="http://www.w3.org/2000/svg"
   version="1.0"
   width="44.939014"
   height="38.134281"
   id="svg2">
  <defs
     id="defs4" />
  <g
     transform="translate(6.8419783e-2,-10.034714)"
     id="layer2"
     style="display:none">
    <rect
       width="34.71814"
       height="30.579344"
       ry="0.18645938"
       x="5.0083518"
       y="13.660975"
       id="rect3211"
       style="fill:none;fill-opacity:1;fill-rule:nonzero;stroke:#FFD700;stroke-width:0.0685405;stroke-linecap:butt;stroke-linejoin:miter;marker:none;marker-start:none;marker-mid:none;marker-end:none;stroke-miterlimit:4;stroke-dasharray:none;stroke-dashoffset:0;stroke-opacity:1;visibility:visible;display:inline;overflow:visible;enable-background:accumulate" />
    <rect
       width="44.814014"
       height="38.009281"
       ry="0.23176385"
       x="0.15711582"
       y="10.097214"
       id="rect2383"
       style="fill:none;fill-opacity:1;fill-rule:nonzero;stroke:#FFD700;stroke-width:0.08681739;stroke-linecap:butt;stroke-linejoin:miter;marker:none;marker-start:none;marker-mid:none;marker-end:none;stroke-miterlimit:4;stroke-dasharray:none;stroke-dashoffset:0;stroke-opacity:1;visibility:visible;display:inline;overflow:visible;enable-background:accumulate" />
  </g>
  <g
     transform="translate(6.8419783e-2,-10.034714)"
     id="layer3"
     style="display:inline">
    <path
       d="M 35.463859,12.640944 L 40.915076,12.95029 C 38.030767,14.792602 35.471059,16.559277 33.235767,18.250317 C 29.846789,22.031166 27.431337,25.042075 25.989229,27.283062 L 25.859462,47.534545 L 20.018853,47.967624 L 20.018853,26.767492 L 16.492908,21.199369 C 12.902081,17.102344 9.3761376,14.510761 5.9150768,13.42461 L 8.5541587,11.36234 C 9.5779867,11.169889 10.86144,11.513595 12.404519,12.393471 C 16.788529,16.380552 20.501924,20.319476 23.544797,24.210278 C 30.596685,15.535019 34.569706,11.678577 35.463859,12.640944"
       id="path4798"
       style="font-size:48px;font-style:normal;font-variant:normal;font-weight:normal;font-stretch:normal;text-align:start;line-height:100%;writing-mode:lr-tb;text-anchor:start;fill:#FFD700;fill-opacity:1;stroke:none;stroke-width:1px;stroke-linecap:butt;stroke-linejoin:miter;stroke-opacity:1;font-family:P39;-inkscape-font-specification:P39" />
  </g>
</svg>
