<?xml version="1.0" standalone="no"?>
<!DOCTYPE svg PUBLIC "-//W3C//DTD SVG 20010904//EN"
 "http://www.w3.org/TR/2001/REC-SVG-20010904/DTD/svg10.dtd">
<svg version="1.0" xmlns="http://www.w3.org/2000/svg"
 width="720.000000pt" height="720.000000pt" viewBox="0 0 720.000000 720.000000"
 preserveAspectRatio="xMidYMid meet">
<metadata>
Created by potrace 1.11, written by Peter Selinger 2001-2013
</metadata>
<g transform="translate(0.000000,720.000000) scale(0.100000,-0.100000)"
fill="#000000" stroke="none">
<path d="M1397 6439 c-15 -4 -48 -24 -74 -46 -26 -21 -56 -45 -67 -53 -10 -8
-33 -27 -51 -42 -18 -16 -38 -28 -44 -28 -6 0 -11 -3 -11 -8 0 -4 -40 -38 -90
-76 -49 -38 -90 -72 -90 -76 0 -5 24 -16 53 -25 28 -9 66 -23 82 -30 17 -7 55
-23 85 -35 59 -23 301 -147 310 -158 3 -4 18 -13 33 -20 15 -6 33 -17 40 -23
7 -6 41 -29 76 -52 36 -23 71 -46 80 -52 8 -5 38 -27 66 -48 27 -20 55 -41 60
-45 34 -25 163 -128 176 -141 9 -9 53 -47 97 -86 81 -69 358 -347 460 -459 29
-32 74 -90 99 -130 25 -39 56 -87 69 -106 85 -132 254 -403 254 -408 0 -3 7
-13 15 -22 21 -23 125 -190 125 -201 0 -5 5 -9 10 -9 6 0 10 -7 10 -15 0 -8 3
-15 8 -15 4 0 15 -17 24 -38 16 -34 17 -156 17 -1712 0 -921 0 -1682 0 -1691
1 -12 10 -15 39 -13 37 3 187 13 272 19 25 1 77 6 115 9 39 3 104 8 145 11 41
3 104 7 140 10 36 3 98 7 139 10 41 3 77 7 80 10 3 3 6 176 8 383 1 207 4 392
6 410 2 17 0 37 -4 43 -4 7 -3 24 1 39 4 15 5 33 1 39 -4 7 -5 32 -1 56 4 25
3 45 -2 45 -5 0 -6 4 -3 10 9 15 12 89 3 84 -4 -3 -4 5 0 18 4 13 6 59 5 103
-2 44 -3 85 -3 90 2 207 9 1021 11 1405 l3 515 50 75 c27 41 53 77 58 78 4 2
8 8 8 14 0 8 43 71 60 88 3 3 16 21 30 40 13 19 28 40 32 45 5 6 22 28 38 50
37 50 196 253 243 311 45 55 241 290 246 294 6 5 84 97 127 148 10 13 33 38
49 56 17 18 44 48 60 67 17 19 59 67 95 108 35 40 89 92 120 114 30 23 60 45
65 49 18 15 193 142 280 203 130 92 189 133 202 145 7 5 24 15 38 22 14 6 25
15 25 20 0 4 6 8 13 8 7 0 22 8 33 18 34 29 83 62 94 62 5 0 10 5 10 10 0 6 7
10 15 10 8 0 15 4 15 8 0 5 10 14 23 21 12 6 34 19 49 29 14 9 87 57 162 106
75 48 136 91 136 95 0 4 -30 8 -67 10 -38 1 -93 4 -123 6 -30 2 -109 6 -175
10 -66 4 -142 8 -170 10 -27 1 -109 6 -182 9 -86 4 -142 12 -160 21 -33 18
-67 13 -143 -23 -48 -22 -183 -118 -245 -173 -87 -78 -206 -193 -305 -294
-140 -143 -177 -182 -345 -370 -38 -43 -79 -87 -89 -99 -36 -40 -371 -432
-406 -475 -19 -23 -44 -53 -55 -65 -29 -33 -51 -59 -145 -176 -47 -58 -87
-107 -91 -110 -3 -3 -18 -22 -34 -43 l-28 -38 -25 28 c-13 15 -36 44 -51 63
-29 39 -42 55 -97 121 -22 25 -57 68 -79 94 -22 27 -58 69 -80 95 -22 25 -60
70 -85 99 -25 30 -58 68 -75 86 -16 18 -53 59 -82 91 -279 316 -839 878 -1179
1183 -51 46 -182 113 -321 165 -24 9 -43 13 -43 11 0 -3 -8 -2 -17 4 -39 20
-206 33 -256 20z"/>
</g>
</svg>
