<?xml version="1.0" standalone="no"?>
<svg width="160" height="140" xmlns="http://www.w3.org/2000/svg"><g transform="translate(12,12)"><g transform="translate(-0,0)" fill="none" font-size="10" font-family="sans-serif" text-anchor="end" style="stroke-width: 4px;"><path class="domain" stroke="currentColor" d="M-6,116.5H0.5V0.5H-6"></path></g><g transform="translate(0,116)" fill="none" font-size="10" font-family="sans-serif" text-anchor="middle" style="stroke-width: 5px;"><path class="domain" stroke="currentColor" d="M0.5,6V0.5H136.5V6"></path></g><path class="line" d="M0,116L1.36,101.8401082793888L2.72,90.91938030106485L4.08,82.94065272605131L5.44,76.75948858045366L6.800000000000001,71.73972047552478L8.16,67.52230961994964L9.520000000000001,63.88956143679913L10.88,60.70074498075407L12.24,57.86003302711616L13.600000000000001,55.29938851641881L14.96,52.968833458475174L16.32,50.83060961995514L17.68,48.855511807821685L19.040000000000003,47.020495168530694L20.4,45.30706174612045L21.76,43.70014130650496L23.12,42.18729569776502L24.48,40.75814090319455L25.84,39.40391916503363L27.200000000000003,38.11717681031598L28.56,36.89151796955521L29.92,35.72141373149142L31.28,34.60205242482324L32.64,33.529220843768435L34,32.49920905597845L35.36,31.50873339444032L36.72,30.554873622361775L38.080000000000005,29.63502125471711L39.44,28.746836742789966L40.8,27.888213759540026L42.16,27.057249218973325L43.52,26.25221795989472L44.88,25.47155125003785L46.24,24.71381843942058L47.599999999999994,23.977711225341046L48.96,23.26203009547442L50.32,22.565672597192314L51.68,21.88762314577777L53.04,21.22694413557887L54.400000000000006,20.582768159283273L55.76,19.954291173640023L57.12,19.340766476811282L58.48,18.74149938441317L59.84,18.155842509218676L61.2,17.583191564234692L62.56,17.02298162104947L63.919999999999995,16.474683765462874L65.28,15.937802100847325L66.64,15.411871056748776L68,14.896452966172209L69.36,14.391135880002471L70.72,13.89553159124884L72.08,13.409273845402078L73.44,12.932016716259726L74.80000000000001,12.4634331291985L76.16000000000001,12.0032135161206L77.52,11.551064588234661L78.88,11.106708214499832L80.24,10.669880395002133L81.6,10.240330319783622L82.96,9.81781950472984L84.32,9.402120997067973L85.68,8.993018643854375L87.04,8.590306417553185L88.4,8.193787793442583L89.76,7.803275174141552L91.12,7.418589357043288L92.48,7.039559040871955L93.83999999999999,6.66602036796543L95.19999999999999,6.297816499224204L96.56,5.9347972189689004L97.92,5.576818567215993L99.28,5.223742497120938L100.64,4.875436555549024L102,4.5317735849262775L103.36,4.192631444690922L104.72,3.857892750820144L106.08,3.5274446320422017L107.44,3.2011785014681653L108.80000000000001,2.87898984248721L110.16000000000001,2.5607780078702267L111.52,2.2464460311152887L112.88,1.9359004491514278L114.24,1.629051135589251L115.6,1.3258111437750348L116.96,1.0260965589642628L118.32,0.7298263589864011L119.68,0.43692228282225365L121.04,0.1473087065607075L122.4,-0.1390874737566401L123.76,-0.42233695285712525L125.12,-0.7025081209438069L126.48,-0.9796671627759235L127.83999999999999,-1.2538781514812092L129.2,-1.5252031374331612L130.56,-1.7937022325013654L131.92,-2.059433689960837L133.28,-2.3224539803260873L134.64,-2.5828178633568477" style="fill: none; stroke: black; stroke-width: 10px;"></path></g></svg>