<?xml version="1.0" standalone="no"?>
<svg width="160" height="140" xmlns="http://www.w3.org/2000/svg"><g transform="translate(12,12)"><g transform="translate(-0,0)" fill="none" font-size="10" font-family="sans-serif" text-anchor="end" style="stroke-width: 4px;"><path class="domain" stroke="currentColor" d="M-6,116.5H0.5V0.5H-6"></path></g><g transform="translate(0,116)" fill="none" font-size="10" font-family="sans-serif" text-anchor="middle" style="stroke-width: 5px;"><path class="domain" stroke="currentColor" d="M0.5,6V0.5H136.5V6"></path></g><path class="line" d="M13.600000000000001,116L14.96,101.8401082793888L16.32,90.91938030106485L17.68,82.94065272605131L19.040000000000003,76.75948858045366L20.4,71.73972047552478L21.76,67.52230961994964L23.12,63.88956143679913L24.48,60.70074498075407L25.84,57.86003302711616L27.200000000000003,55.29938851641881L28.56,52.968833458475174L29.92,50.83060961995514L31.28,48.855511807821685L32.64,47.020495168530694L34,45.30706174612045L35.36,43.70014130650496L36.72,42.18729569776502L38.080000000000005,40.75814090319455L39.44,39.40391916503363L40.8,38.11717681031598L42.16,36.89151796955521L43.52,35.72141373149142L44.88,34.60205242482324L46.24,33.529220843768435L47.599999999999994,32.49920905597845L48.96,31.50873339444032L50.32,30.554873622361775L51.68,29.63502125471711L53.04,28.746836742789966L54.400000000000006,27.888213759540026L55.76,27.057249218973325L57.12,26.25221795989472L58.48,25.47155125003785L59.84,24.71381843942058L61.2,23.977711225341046L62.56,23.26203009547442L63.919999999999995,22.565672597192314L65.28,21.88762314577777L66.64,21.22694413557887L68,20.582768159283273L69.36,19.954291173640023L70.72,19.340766476811282L72.08,18.74149938441317L73.44,18.155842509218676L74.80000000000001,17.583191564234692L76.16000000000001,17.02298162104947L77.52,16.474683765462874L78.88,15.937802100847325L80.24,15.411871056748776L81.6,14.896452966172209L82.96,14.391135880002471L84.32,13.89553159124884L85.68,13.409273845402078L87.04,12.932016716259726L88.4,12.4634331291985L89.76,12.0032135161206L91.12,11.551064588234661L92.48,11.106708214499832L93.83999999999999,10.669880395002133L95.19999999999999,10.240330319783622L96.56,9.81781950472984L97.92,9.402120997067973L99.28,8.993018643854375L100.64,8.590306417553185L102,8.193787793442583L103.36,7.803275174141552L104.72,7.418589357043288L106.08,7.039559040871955L107.44,6.66602036796543L108.80000000000001,6.297816499224204L110.16000000000001,5.9347972189689004L111.52,5.576818567215993L112.88,5.223742497120938L114.24,4.875436555549024L115.6,4.5317735849262775L116.96,4.192631444690922L118.32,3.857892750820144L119.68,3.5274446320422017L121.04,3.2011785014681653L122.4,2.87898984248721L123.76,2.5607780078702267L125.12,2.2464460311152887L126.48,1.9359004491514278L127.83999999999999,1.629051135589251L129.2,1.3258111437750348L130.56,1.0260965589642628L131.92,0.7298263589864011L133.28,0.43692228282225365L134.64,0.1473087065607075L136,-0.1390874737566401L137.36,-0.42233695285712525L138.72,-0.7025081209438069L140.08,-0.9796671627759235L141.44,-1.2538781514812092L142.8,-1.5252031374331612L144.16,-1.7937022325013654L145.52,-2.059433689960837L146.88,-2.3224539803260873L148.24,-2.5828178633568477" style="fill: none; stroke: black; stroke-width: 10px;"></path></g></svg>